<svg width="1em" height="1em" fill="#778ca2" viewBox="0 0 20 20" xmlns="http://www.w3.org/2000/svg"><path clip-rule="evenodd" d="m10.0001 16c-3.14898 0-6.01498-1.806-8.59698-5.418-.24908-.348-.24908-.81597 0-1.164 2.582-3.612 5.447-5.418 8.59698-5.418 3.149 0 6.015 1.806 8.597 5.418.2491.34803.2491.816 0 1.164-2.582 3.612-5.447 5.418-8.597 5.418zm0-2c2.2092 0 4-1.7909 4-4 0-2.20914-1.7908-4-4-4-2.20912 0-3.99998 1.79086-3.99998 4 0 2.2091 1.79086 4 3.99998 4zm.589-5.912c-.4053.18311-.64103.61194-.5783 1.05229.0627.44035.4087.78637.849.84906.4404.06265.8692-.17299 1.0523-.57835.187.6068.0748 1.2664-.3025 1.7771-.3772.5108-.9745.8121-1.6095.8119-.78564-.0009-1.49801-.4617-1.82094-1.1779-.32294-.7162-.19663-1.5552.32289-2.14458.51951-.58939 1.33598-.82001 2.08705-.58952z" fill-rule="evenodd"></path></svg>
