<svg width="46" height="46" viewBox="0 0 46 46" fill="none" xmlns="http://www.w3.org/2000/svg">
<path d="M28.5293 13.6986C25.611 8.87302 19.7473 7.24104 15.4325 10.0535C13.9085 11.0468 12.7816 12.4617 12.0899 14.089C11.5526 15.3531 11.2569 16.7149 10.8038 18.0141C10.0531 20.1661 8.69091 22.0309 6.89738 23.3619L6.19201 23.8854C4.64309 24.895 4.23669 27.1177 5.2843 28.85C6.33192 30.5823 8.43683 31.1681 9.98575 30.1585L10.7464 29.7264C12.6804 28.6278 14.8901 28.1644 17.0833 28.3976C18.4073 28.5384 19.7172 28.8536 21.0474 28.9005C22.7597 28.9609 24.4768 28.522 26.0007 27.5286C30.3156 24.7162 31.4477 18.5243 28.5293 13.6986Z" fill="#52F4FF"/>
<path d="M12.8955 23.8889C15.8139 28.7146 21.6776 30.3465 25.9924 27.5341C27.5163 26.5408 28.6433 25.1259 29.3349 23.4986C29.8723 22.2345 30.1679 20.8727 30.6211 19.5735C31.3718 17.4214 32.734 15.5566 34.5275 14.2256L35.2329 13.7022C36.7818 12.6926 37.1882 10.4698 36.1406 8.73757C35.093 7.00529 32.9881 6.41945 31.4391 7.42906L30.6785 7.86114C28.7445 8.95981 26.5348 9.42319 24.3416 9.18999C23.0176 9.04921 21.7077 8.73394 20.3775 8.68705C18.6652 8.6267 16.9481 9.06562 15.4241 10.0589C11.1093 12.8714 9.97719 19.0633 12.8955 23.8889Z" fill="#52F4FF"/>
<path d="M33.1045 22.1108C30.1862 17.2851 24.3225 15.6531 20.0077 18.4656C18.4837 19.4589 17.3568 20.8738 16.6651 22.5011C16.1278 23.7652 15.8321 25.127 15.379 26.4262C14.6283 28.5782 13.2661 30.443 11.4726 31.774L10.7672 32.2975C9.21828 33.3071 8.81189 35.5298 9.8595 37.2621C10.9071 38.9944 13.012 39.5802 14.5609 38.5706L15.3216 38.1385C17.2556 37.0399 19.4653 36.5765 21.6585 36.8097C22.9825 36.9505 24.2924 37.2657 25.6226 37.3126C27.3349 37.373 29.052 36.9341 30.5759 35.9408C34.8908 33.1283 36.0229 26.9364 33.1045 22.1108Z" fill="#4C6AFF" fill-opacity="0.63"/>
<path d="M17.4707 32.301C20.3891 37.1267 26.2528 38.7586 30.5676 35.9462C32.0915 34.9529 33.2185 33.538 33.9101 31.9107C34.4475 30.6466 34.7431 29.2848 35.1963 27.9856C35.947 25.8335 37.3092 23.9687 39.1027 22.6377L39.8081 22.1143C41.357 21.1047 41.7634 18.882 40.7158 17.1497C39.6682 15.4174 37.5633 14.8316 36.0143 15.8412L35.2537 16.2733C33.3197 17.3719 31.11 17.8353 28.9168 17.6021C27.5928 17.4613 26.2829 17.146 24.9527 17.0992C23.2404 17.0388 21.5233 17.4777 19.9993 18.471C15.6845 21.2835 14.5524 27.4754 17.4707 32.301Z" fill="#4C6AFF" fill-opacity="0.63"/>
</svg>
