<?xml version="1.0" standalone="no"?><!DOCTYPE svg PUBLIC "-//W3C//DTD SVG 1.1//EN" "http://www.w3.org/Graphics/SVG/1.1/DTD/svg11.dtd"><svg t="1677224872185" class="icon" viewBox="0 0 1024 1024" version="1.1" xmlns="http://www.w3.org/2000/svg" p-id="1151" xmlns:xlink="http://www.w3.org/1999/xlink" width="20" height="20"><path d="M224.736 544H448l2.4 0.096 4.032 0.544 3.552 0.96 3.552 1.408 3.136 1.664 3.072 2.144 2.88 2.56c1.152 1.12 2.176 2.336 3.104 3.584l2.272 3.52 1.728 3.648 1.12 3.36 0.96 4.8L480 576v224.128a32 32 0 0 1-63.776 3.712L416 800.128v-146.88l-201.376 201.376a32 32 0 0 1-47.904-42.24l2.656-3.008L370.688 608h-145.92a32 32 0 0 1-31.808-28.256L192.736 576a32 32 0 0 1 28.288-31.776L224.736 544zM854.624 169.376a32 32 0 0 1 2.656 42.24l-2.656 3.008L653.28 416l145.984 0.032a32 32 0 0 1 31.776 28.256l0.224 3.744a32 32 0 0 1-28.288 31.776l-3.712 0.224-225.664-0.096-4.032-0.544-3.552-0.96-3.552-1.408-3.136-1.664-3.072-2.144-2.88-2.56a32.32 32.32 0 0 1-3.104-3.584l-2.272-3.52-1.728-3.648-1.12-3.36-0.96-4.8L544 448V223.872a32 32 0 0 1 63.776-3.712l0.224 3.712v146.816l201.376-201.312a32 32 0 0 1 45.248 0z" fill="#333333" p-id="1152"></path></svg>
